<svg width="46" height="48" viewBox="0 0 46 48" fill="none" xmlns="http://www.w3.org/2000/svg">
<path d="M25.8006 35.7873C22.3006 34.4873 18.7006 34.2873 15.4006 35.1873C13.1006 35.7873 10.9006 36.9873 8.90061 38.4873L7.50058 39.6873L7.10059 40.0873L8.00058 40.8873C8.10058 40.8873 8.10059 40.9873 8.20059 41.0873C8.40059 41.2873 8.60061 41.3873 8.90061 41.5873L9.50058 41.9873L10.1006 41.4873C10.2006 41.3873 10.4006 41.1873 10.6006 41.0873C12.4006 39.5873 14.4006 38.5873 16.5006 38.0873C19.2006 37.3873 22.1006 37.4873 25.0006 38.5873C27.4006 39.4873 32.3006 40.5873 38.2006 38.0873L38.4006 37.9873L38.7006 37.6873C38.7006 37.5873 38.8006 37.5873 38.9006 37.4873C39.4006 36.8873 39.9006 36.2873 40.3006 35.5873L42.3006 32.4873L39.1006 34.2873C34.4006 36.8873 30.1006 37.3873 25.8006 35.7873Z" fill="#099250"/>
<path d="M12.1 24.9881C14.8 24.2881 17.7 24.3881 20.6 25.4881C23.8 26.6881 32 28.3881 41.2 20.0881L42.7 18.5881L42.8 18.4881L43.2 18.0881L43 17.5881C42.9 17.1881 42.7 16.6881 42.5 16.1881L42 14.7881L41 15.7881C40.9 15.9881 40.7 16.0881 40.5 16.2881C36.1 20.7881 29.3 25.3881 21.5 22.5881C18 21.2881 14.4 21.0881 11.1 21.9881C7.90001 22.8881 5.1 24.5881 2.5 26.9881V26.8881L1 28.4881C1 28.5881 0.900018 28.5881 0.800018 28.6881L0.5 28.9881L0.600006 29.3881C0.700006 29.8881 0.9 30.3881 1 30.8881L1.60001 32.4881L2.60001 31.1881C2.70001 30.9881 2.9 30.8881 3 30.6881C5.1 28.7881 8.00001 26.0881 12.1 24.9881Z" fill="#099250"/>
<path d="M2.40002 23.1871C4.70002 20.7871 7.30001 19.2871 10.1 18.4871C12.8 17.7871 15.7 17.8871 18.6 18.9871C27.6 22.2871 35.4 16.8871 38.8 13.9871L40.1 12.6871L40.6 12.2871L40.2 11.6871C39.9 11.3871 39.7 10.9871 39.4 10.5871L38.8 9.78711L38.1 10.4871C38 10.5871 37.8 10.7871 37.7 10.8871C33.5 14.8871 27 18.9871 19.6 16.1871C16.1 14.8871 12.5 14.6871 9.20001 15.5871C7.10001 16.1871 5.10001 17.1871 3.10001 18.4871L1 20.1871C0.8 20.3871 0.7 20.4871 0.5 20.6871L0.300018 20.8871V21.1871C0.200018 21.8871 0.200006 22.5871 0.100006 23.1871L0 25.6871L1.70001 23.8871C1.90001 23.6871 2.10002 23.3871 2.40002 23.1871Z" fill="#099250"/>
<path d="M28.6994 42.587C28.3994 42.487 28.1994 42.387 27.8994 42.287C24.3994 40.987 20.7994 40.787 17.4994 41.687C16.7994 41.887 16.0994 42.087 15.3994 42.387L12.9994 43.487L12.3994 43.787L14.3994 44.487C14.9994 44.687 15.5994 44.887 16.1994 45.087L16.4994 45.187L16.7994 45.087C17.0994 44.987 17.3994 44.787 17.6994 44.787C17.8994 44.787 18.0994 44.687 18.2994 44.587C20.6994 43.987 23.2994 43.987 26.0994 44.887C26.3994 44.987 26.5994 45.087 26.8994 45.187L27.3994 45.387L27.6994 45.287C28.3994 45.087 29.1994 44.887 29.7994 44.587L32.5994 43.587L29.6994 42.887C29.3994 42.787 28.9994 42.687 28.6994 42.587Z" fill="#099250"/>
<path d="M43.9998 21.8877L42.4998 23.3877C42.2998 23.5877 42.0998 23.7877 41.8998 23.9877C37.7998 27.8877 31.1998 32.0876 23.7998 29.2876C20.2998 27.9876 16.6998 27.7877 13.3998 28.6877C10.2998 29.5877 7.49979 31.1877 4.99979 33.5877L3.6998 34.9877L3.2998 35.4877L3.6998 36.0877C3.9998 36.4877 4.19981 36.7877 4.39981 37.1877L4.99979 38.0877L5.6998 37.1877C5.7998 37.0877 5.99979 36.8876 6.09979 36.7876C8.49979 34.1876 11.0998 32.5876 14.0998 31.7876C16.7998 31.0876 19.6998 31.1876 22.5998 32.2876C25.0998 33.1876 27.6998 33.4877 30.2998 33.1877C34.8998 32.6877 39.4998 30.0877 42.8998 27.1877C43.0998 26.9877 43.2998 26.8877 43.4998 26.6877L43.7998 26.3877V26.0877C43.7998 25.4877 43.8998 24.7877 43.8998 24.1877L43.9998 21.8877Z" fill="#099250"/>
<path d="M6.00017 12.6879C6.60018 12.3879 7.30021 12.1878 7.90021 11.9878C10.6002 11.2878 13.5002 11.3878 16.4002 12.4878C18.3002 13.1878 20.2002 13.4878 22.3002 13.4878C26.5002 13.4878 30.7002 11.9878 34.6002 9.08789L36.1002 7.88787L36.6002 7.48788L35.7002 6.78787C35.4002 6.48787 35.0002 6.18788 34.6002 5.98788L34.0002 5.58789L33.5002 5.98788C33.3002 6.08788 33.2002 6.28787 33.0002 6.38787C27.7002 10.3878 22.4002 11.4878 17.4002 9.58789C13.8002 8.28789 10.2002 7.98789 6.60019 9.08789C6.30019 9.18789 6.00019 9.28787 5.60019 9.38787L5.40021 9.48788L5.10019 9.78787C5.10019 9.88787 5.00021 9.88788 4.90021 9.98788C4.50021 10.5878 4.00019 11.0879 3.60019 11.6879L1.7002 14.5878L4.8002 12.9878C5.3002 12.9878 5.70017 12.7879 6.00017 12.6879Z" fill="#099250"/>
<path d="M14.2 5.88748L14.5 5.98749C15.8 6.48749 17.8 6.98749 20.3 6.98749C22.9 6.98749 25.4 6.38748 27.9 5.38748L31 3.88748L28.9 3.1875C28.3 2.9875 27.7 2.7875 27 2.6875H26.7L26.4 2.78748C26.1 2.88748 25.8 3.0875 25.5 3.1875C22.5 4.2875 19.5 4.4875 16.6 3.6875C16.3 3.5875 16 3.48748 15.7 3.38748L15.4 3.28748L15.1 3.38748C14.5 3.58748 13.9 3.78749 13.3 4.08749L11 5.08749L13.4 5.78748C13.6 5.68748 13.9 5.78748 14.2 5.88748Z" fill="#099250"/>
</svg>
